<?xml version="1.0" encoding="utf-8"?>
<!-- Generator: Adobe Illustrator 17.0.0, SVG Export Plug-In . SVG Version: 6.00 Build 0)  -->
<!DOCTYPE svg PUBLIC "-//W3C//DTD SVG 1.1//EN" "http://www.w3.org/Graphics/SVG/1.1/DTD/svg11.dtd">
<svg version="1.1" id="Layer_1" xmlns="http://www.w3.org/2000/svg" xmlns:xlink="http://www.w3.org/1999/xlink" x="0px" y="0px"
	 width="1000px" height="1000px" viewBox="0 0 1000 1000" enable-background="new 0 0 1000 1000" xml:space="preserve">
<path fill="#222222" d="M339.648,776.172c0,3.906-4.492,7.031-10.156,7.031c-6.445,0.586-10.938-2.539-10.938-7.031
	c0-3.906,4.492-7.031,10.156-7.031C334.57,768.555,339.648,771.68,339.648,776.172z M278.906,767.383
	c-1.367,3.906,2.539,8.398,8.398,9.57c5.078,1.953,10.938,0,12.109-3.906c1.172-3.906-2.539-8.398-8.398-10.156
	C285.937,761.523,280.273,763.477,278.906,767.383L278.906,767.383z M365.234,764.062c-5.664,1.367-9.57,5.078-8.984,9.57
	c0.586,3.906,5.664,6.445,11.523,5.078c5.664-1.367,9.57-5.078,8.984-8.984C376.172,766.016,370.898,763.477,365.234,764.062z
	 M493.75,15.625c-270.898,0-478.125,205.664-478.125,476.563c0,216.602,136.328,401.953,331.055,467.188
	c25,4.492,33.789-10.938,33.789-23.633c0-12.109-0.586-78.906-0.586-119.922c0,0-136.719,29.297-165.43-58.203
	c0,0-22.266-56.836-54.297-71.484c0,0-44.727-30.664,3.125-30.078c0,0,48.633,3.906,75.391,50.391
	c42.773,75.391,114.453,53.711,142.383,40.82c4.492-31.25,17.188-52.93,31.25-65.82c-109.18-12.109-219.336-27.93-219.336-215.82
	c0-53.711,14.844-80.664,46.094-115.039c-5.078-12.695-21.68-65.039,5.078-132.617c40.82-12.695,134.766,52.734,134.766,52.734
	c39.063-10.938,81.055-16.602,122.656-16.602s83.594,5.664,122.656,16.602c0,0,93.945-65.625,134.766-52.734
	c26.758,67.773,10.156,119.922,5.078,132.617c31.25,34.57,50.391,61.523,50.391,115.039c0,188.477-115.039,203.516-224.219,215.82
	c17.969,15.43,33.203,44.727,33.203,90.625c0,65.82-0.586,147.266-0.586,163.281c0,12.695,8.984,28.125,33.789,23.633
	c195.313-64.844,327.734-250.195,327.734-466.797C984.375,221.289,764.648,15.625,493.75,15.625z M205.469,689.258
	c-2.539,1.953-1.953,6.445,1.367,10.156c3.125,3.125,7.617,4.492,10.156,1.953c2.539-1.953,1.953-6.445-1.367-10.156
	C212.5,688.086,208.008,686.719,205.469,689.258z M184.375,673.438c-1.367,2.539,0.586,5.664,4.492,7.617
	c3.125,1.953,7.031,1.367,8.398-1.367c1.367-2.539-0.586-5.664-4.492-7.617C188.867,670.898,185.742,671.484,184.375,673.438z
	 M247.656,742.969c-3.125,2.539-1.953,8.398,2.539,12.109c4.492,4.492,10.156,5.078,12.695,1.953
	c2.539-2.539,1.367-8.398-2.539-12.109C256.055,740.43,250.195,739.844,247.656,742.969z M225.391,714.258
	c-3.125,1.953-3.125,7.031,0,11.523s8.398,6.445,10.938,4.492c3.125-2.539,3.125-7.617,0-12.109
	C233.594,713.672,228.516,711.719,225.391,714.258L225.391,714.258z"/>
</svg>
