<?xml version="1.0" encoding="utf-8"?>
<!-- Generator: Adobe Illustrator 17.0.0, SVG Export Plug-In . SVG Version: 6.00 Build 0)  -->
<!DOCTYPE svg PUBLIC "-//W3C//DTD SVG 1.1//EN" "http://www.w3.org/Graphics/SVG/1.1/DTD/svg11.dtd">
<svg version="1.1" id="Layer_1" xmlns="http://www.w3.org/2000/svg" xmlns:xlink="http://www.w3.org/1999/xlink" x="0px" y="0px"
	 width="1000px" height="1000px" viewBox="0 0 1000 1000" enable-background="new 0 0 1000 1000" xml:space="preserve">
<path fill="#FFFFFF" d="M875,62.5H124.805C90.43,62.5,62.5,90.82,62.5,125.586v748.828c0,34.766,27.93,63.086,62.305,63.086H875
	c34.375,0,62.5-28.32,62.5-63.086V125.586C937.5,90.82,909.375,62.5,875,62.5z M326.953,812.5H197.266V394.922h129.883V812.5
	H326.953z M262.109,337.891c-41.602,0-75.195-33.789-75.195-75.195s33.594-75.195,75.195-75.195
	c41.406,0,75.195,33.789,75.195,75.195C337.305,304.297,303.711,337.891,262.109,337.891z M813.086,812.5H683.398V609.375
	c0-48.438-0.977-110.742-67.383-110.742c-67.578,0-77.93,52.734-77.93,107.227V812.5H408.398V394.922h124.414v57.031h1.758
	c17.383-32.813,59.766-67.383,122.852-67.383c131.25,0,155.664,86.523,155.664,199.023V812.5z"/>
</svg>
