<?xml version="1.0" encoding="utf-8"?>
<!-- Generator: Adobe Illustrator 17.0.0, SVG Export Plug-In . SVG Version: 6.00 Build 0)  -->
<!DOCTYPE svg PUBLIC "-//W3C//DTD SVG 1.1//EN" "http://www.w3.org/Graphics/SVG/1.1/DTD/svg11.dtd">
<svg version="1.1" id="Layer_1" xmlns="http://www.w3.org/2000/svg" xmlns:xlink="http://www.w3.org/1999/xlink" x="0px" y="0px"
	 width="1000px" height="1000px" viewBox="0 0 1000 1000" enable-background="new 0 0 1000 1000" xml:space="preserve">
<path fill="#FFFFFF" d="M500,395.82c-57.537,0.022-104.162,46.682-104.141,104.219c0.022,57.537,46.682,104.162,104.219,104.141
	C557.6,604.158,604.219,557.522,604.219,500C604.176,442.466,557.534,395.842,500,395.82z M743.574,315.742
	c-10.72-27.168-32.227-48.674-59.395-59.395c-41.016-16.191-138.672-12.559-184.18-12.559s-143.066-3.77-184.199,12.559
	c-27.168,10.72-48.674,32.227-59.395,59.395c-16.172,41.016-12.559,138.77-12.559,184.238c0,45.469-3.613,143.105,12.637,184.258
	c10.72,27.168,32.227,48.674,59.395,59.395c41.016,16.191,138.672,12.559,184.199,12.559s143.047,3.77,184.18-12.559
	c27.168-10.72,48.674-32.227,59.395-59.395c16.309-41.016,12.559-138.77,12.559-184.238s3.75-143.086-12.559-184.238
	L743.574,315.742z M500,660.156c-88.452,0-160.156-71.704-160.156-160.156S411.548,339.844,500,339.844S660.156,411.548,660.156,500
	c0.108,88.344-71.421,160.048-159.765,160.156C500.261,660.156,500.13,660.156,500,660.156z M666.758,370.508
	c-20.646,0.011-37.392-16.717-37.402-37.363c-0.011-20.646,16.717-37.392,37.363-37.402c20.646-0.011,37.392,16.717,37.402,37.363
	c0,0.007,0,0.013,0,0.02c0.086,20.603-16.545,37.374-37.148,37.461c-0.046,0-0.091,0-0.137,0L666.758,370.508z M843.75,62.5h-687.5
	c-51.777,0-93.75,41.973-93.75,93.75v687.5c0,51.777,41.973,93.75,93.75,93.75h687.5c51.777,0,93.75-41.973,93.75-93.75v-687.5
	C937.5,104.473,895.527,62.5,843.75,62.5z M810.313,628.906c-2.52,50.059-13.945,94.414-50.488,130.859
	s-80.859,48.105-130.859,50.488c-51.582,2.91-206.23,2.91-257.813,0c-50.059-2.52-94.258-13.965-130.859-50.488
	s-48.105-80.898-50.488-130.859c-2.91-51.602-2.91-206.27,0-257.813c2.52-50.059,13.809-94.414,50.488-130.859
	s80.996-47.969,130.859-50.352c51.582-2.91,206.23-2.91,257.813,0c50.059,2.52,94.395,13.965,130.859,50.488
	s48.105,80.898,50.488,130.957C813.223,422.734,813.223,577.266,810.313,628.906z"/>
</svg>
